<svg width="30" height="31" viewBox="0 0 30 31" fill="none" xmlns="http://www.w3.org/2000/svg">
<rect x="-0.355843" y="0.355843" width="29.1791" height="29.1791" rx="8.18438" transform="matrix(-1 0 0 1 29.1789 0.21875)" fill="#CFCFCF" fill-opacity="0.2"/>
<rect x="-0.355843" y="0.355843" width="29.1791" height="29.1791" rx="8.18438" transform="matrix(-1 0 0 1 29.1789 0.21875)" stroke="white" stroke-width="0.711685"/>
<g clip-path="url(#clip0_394_534)" filter="url(#filter0_i_394_534)">
<path d="M18.9193 16.2312L19.3938 13.1402H16.4277V11.1343C16.4277 10.2888 16.8419 9.46418 18.1705 9.46418H19.5187V6.83273C19.5187 6.83273 18.2954 6.62402 17.1253 6.62402C14.6828 6.62402 13.0864 8.10469 13.0864 10.7847V13.1407H10.3711V16.2318H13.0864V23.7045H16.4277V16.2318L18.9193 16.2312Z" fill="white"/>
</g>
<defs>
<filter id="filter0_i_394_534" x="6.40527" y="6.62402" width="17.0801" height="17.5905" filterUnits="userSpaceOnUse" color-interpolation-filters="sRGB">
<feFlood flood-opacity="0" result="BackgroundImageFix"/>
<feBlend mode="normal" in="SourceGraphic" in2="BackgroundImageFix" result="shape"/>
<feColorMatrix in="SourceAlpha" type="matrix" values="0 0 0 0 0 0 0 0 0 0 0 0 0 0 0 0 0 0 127 0" result="hardAlpha"/>
<feOffset dy="0.509903"/>
<feGaussianBlur stdDeviation="0.956067"/>
<feComposite in2="hardAlpha" operator="arithmetic" k2="-1" k3="1"/>
<feColorMatrix type="matrix" values="0 0 0 0 0 0 0 0 0 0 0 0 0 0 0 0 0 0 0.2 0"/>
<feBlend mode="normal" in2="shape" result="effect1_innerShadow_394_534"/>
</filter>
<clipPath id="clip0_394_534">
<rect width="17.0805" height="17.0805" fill="white" transform="translate(6.40527 6.62402)"/>
</clipPath>
</defs>
</svg>
