<svg width="31" height="31" viewBox="0 0 31 31" fill="none" xmlns="http://www.w3.org/2000/svg">
<rect x="-0.355843" y="0.355843" width="29.1791" height="29.1791" rx="8.18438" transform="matrix(-1 0 0 1 29.9836 0.21875)" fill="#CFCFCF" fill-opacity="0.2"/>
<rect x="-0.355843" y="0.355843" width="29.1791" height="29.1791" rx="8.18438" transform="matrix(-1 0 0 1 29.9836 0.21875)" stroke="white" stroke-width="0.711685"/>
<g clip-path="url(#clip0_394_547)" filter="url(#filter0_i_394_547)">
<path fill-rule="evenodd" clip-rule="evenodd" d="M7.92188 8.64402C7.92188 8.29709 8.05969 7.96438 8.305 7.71907C8.55031 7.47375 8.88303 7.33594 9.22995 7.33594H22.2695C22.4414 7.33566 22.6117 7.36929 22.7706 7.43491C22.9295 7.50053 23.0739 7.59685 23.1955 7.71835C23.3172 7.83986 23.4136 7.98416 23.4794 8.143C23.5452 8.30184 23.5791 8.47209 23.579 8.64402V21.6835C23.5791 21.8555 23.5454 22.0258 23.4797 22.1847C23.414 22.3436 23.3176 22.488 23.1961 22.6096C23.0745 22.7313 22.9302 22.8277 22.7713 22.8935C22.6124 22.9593 22.4421 22.9931 22.2702 22.993H9.22995C9.05811 22.993 8.88796 22.9592 8.72921 22.8934C8.57046 22.8276 8.42623 22.7312 8.30475 22.6096C8.18328 22.4881 8.08694 22.3438 8.02124 22.185C7.95555 22.0262 7.92178 21.8561 7.92188 21.6842V8.64402ZM14.1192 13.3056H16.2393V14.3702C16.5454 13.7582 17.3282 13.2073 18.5046 13.2073C20.76 13.2073 21.2944 14.4265 21.2944 16.6633V20.8067H19.0121V17.1729C19.0121 15.8989 18.706 15.1801 17.9289 15.1801C16.8507 15.1801 16.4023 15.9552 16.4023 17.1729V20.8067H14.1192V13.3056ZM10.205 20.7092H12.488V13.2073H10.205V20.7085V20.7092ZM12.8147 10.7606C12.819 10.9561 12.7842 11.1504 12.7124 11.3323C12.6406 11.5141 12.5331 11.6798 12.3964 11.8196C12.2597 11.9594 12.0964 12.0704 11.9162 12.1462C11.7359 12.222 11.5424 12.2611 11.3469 12.2611C11.1513 12.2611 10.9578 12.222 10.7775 12.1462C10.5973 12.0704 10.434 11.9594 10.2973 11.8196C10.1606 11.6798 10.0532 11.5141 9.98132 11.3323C9.90949 11.1504 9.87471 10.9561 9.87901 10.7606C9.88746 10.3769 10.0458 10.0117 10.3202 9.74335C10.5945 9.47497 10.9631 9.32469 11.3469 9.32469C11.7307 9.32469 12.0992 9.47497 12.3735 9.74335C12.6479 10.0117 12.8063 10.3769 12.8147 10.7606Z" fill="white"/>
</g>
<defs>
<filter id="filter0_i_394_547" x="7.20996" y="6.62402" width="17.0801" height="19.9273" filterUnits="userSpaceOnUse" color-interpolation-filters="sRGB">
<feFlood flood-opacity="0" result="BackgroundImageFix"/>
<feBlend mode="normal" in="SourceGraphic" in2="BackgroundImageFix" result="shape"/>
<feColorMatrix in="SourceAlpha" type="matrix" values="0 0 0 0 0 0 0 0 0 0 0 0 0 0 0 0 0 0 127 0" result="hardAlpha"/>
<feOffset dy="2.84674"/>
<feGaussianBlur stdDeviation="5.33764"/>
<feComposite in2="hardAlpha" operator="arithmetic" k2="-1" k3="1"/>
<feColorMatrix type="matrix" values="0 0 0 0 0 0 0 0 0 0 0 0 0 0 0 0 0 0 0.2 0"/>
<feBlend mode="normal" in2="shape" result="effect1_innerShadow_394_547"/>
</filter>
<clipPath id="clip0_394_547">
<rect width="17.0805" height="17.0805" fill="white" transform="translate(7.20996 6.62402)"/>
</clipPath>
</defs>
</svg>
