<svg width="18" height="18" viewBox="0 0 18 18" fill="none" xmlns="http://www.w3.org/2000/svg">
<g clip-path="url(#clip0_394_548)" filter="url(#filter0_i_394_548)">
<path fill-rule="evenodd" clip-rule="evenodd" d="M0.921875 2.64402C0.921875 2.29709 1.05969 1.96438 1.305 1.71907C1.55031 1.47375 1.88303 1.33594 2.22995 1.33594H15.2695C15.4414 1.33566 15.6117 1.36929 15.7706 1.43491C15.9295 1.50053 16.0739 1.59685 16.1955 1.71835C16.3172 1.83986 16.4136 1.98416 16.4794 2.143C16.5452 2.30184 16.5791 2.47209 16.579 2.64402V15.6835C16.5791 15.8555 16.5454 16.0258 16.4797 16.1847C16.414 16.3436 16.3176 16.488 16.1961 16.6096C16.0745 16.7313 15.9302 16.8277 15.7713 16.8935C15.6124 16.9593 15.4421 16.9931 15.2702 16.993H2.22995C2.05811 16.993 1.88796 16.9592 1.72921 16.8934C1.57046 16.8276 1.42623 16.7312 1.30475 16.6096C1.18328 16.4881 1.08694 16.3438 1.02124 16.185C0.955547 16.0262 0.921782 15.8561 0.921875 15.6842V2.64402ZM7.11923 7.30556H9.23934V8.37024C9.54537 7.75819 10.3282 7.20735 11.5046 7.20735C13.76 7.20735 14.2944 8.42646 14.2944 10.6633V14.8067H12.0121V11.1729C12.0121 9.89894 11.706 9.18014 10.9289 9.18014C9.85068 9.18014 9.40232 9.95516 9.40232 11.1729V14.8067H7.11923V7.30556ZM3.20496 14.7092H5.48805V7.20735H3.20496V14.7085V14.7092ZM5.81471 4.76057C5.81902 4.95605 5.78423 5.15042 5.7124 5.33228C5.64057 5.51413 5.53314 5.67981 5.39641 5.81958C5.25968 5.95935 5.09641 6.07041 4.91618 6.14623C4.73595 6.22204 4.54239 6.2611 4.34686 6.2611C4.15133 6.2611 3.95778 6.22204 3.77755 6.14623C3.59732 6.07041 3.43405 5.95935 3.29732 5.81958C3.16059 5.67981 3.05315 5.51413 2.98132 5.33228C2.90949 5.15042 2.87471 4.95605 2.87901 4.76057C2.88746 4.37687 3.04582 4.01173 3.32017 3.74335C3.59453 3.47497 3.96307 3.32469 4.34686 3.32469C4.73066 3.32469 5.0992 3.47497 5.37355 3.74335C5.6479 4.01173 5.80626 4.37687 5.81471 4.76057Z" fill="white"/>
</g>
<defs>
<filter id="filter0_i_394_548" x="0.209961" y="0.624023" width="17.0801" height="19.9273" filterUnits="userSpaceOnUse" color-interpolation-filters="sRGB">
<feFlood flood-opacity="0" result="BackgroundImageFix"/>
<feBlend mode="normal" in="SourceGraphic" in2="BackgroundImageFix" result="shape"/>
<feColorMatrix in="SourceAlpha" type="matrix" values="0 0 0 0 0 0 0 0 0 0 0 0 0 0 0 0 0 0 127 0" result="hardAlpha"/>
<feOffset dy="2.84674"/>
<feGaussianBlur stdDeviation="5.33764"/>
<feComposite in2="hardAlpha" operator="arithmetic" k2="-1" k3="1"/>
<feColorMatrix type="matrix" values="0 0 0 0 0 0 0 0 0 0 0 0 0 0 0 0 0 0 0.2 0"/>
<feBlend mode="normal" in2="shape" result="effect1_innerShadow_394_548"/>
</filter>
<clipPath id="clip0_394_548">
<rect width="17.0805" height="17.0805" fill="white" transform="translate(0.209961 0.624023)"/>
</clipPath>
</defs>
</svg>
