<svg width="18" height="18" viewBox="0 0 18 18" fill="none" xmlns="http://www.w3.org/2000/svg">
<g clip-path="url(#clip0_394_540)" filter="url(#filter0_i_394_540)">
<path d="M17.5327 5.2555C17.436 4.9105 17.2476 4.59815 16.9875 4.35166C16.7201 4.09759 16.3924 3.91585 16.0353 3.82359C14.6987 3.4713 9.34401 3.4713 9.34401 3.4713C7.11169 3.4459 4.87991 3.55761 2.66129 3.80579C2.30415 3.90487 1.97704 4.09067 1.70905 4.34668C1.44573 4.60004 1.25499 4.91247 1.15536 5.25479C0.916014 6.54418 0.799724 7.8534 0.808056 9.16479C0.799516 10.475 0.915521 11.7838 1.15536 13.0748C1.25286 13.4157 1.44288 13.7267 1.70692 13.9779C1.97095 14.2291 2.29975 14.4106 2.66129 14.5067C4.01562 14.8583 9.34401 14.8583 9.34401 14.8583C11.5792 14.8837 13.8138 14.772 16.0353 14.5238C16.3924 14.4315 16.7201 14.2498 16.9875 13.9957C17.2508 13.7445 17.438 13.4321 17.532 13.0919C17.7775 11.803 17.897 10.4932 17.8885 9.18116C17.907 7.86354 17.7877 6.54761 17.5327 5.25479V5.2555ZM7.64166 11.6016V6.72869L12.0968 9.1655L7.64166 11.6016Z" fill="white"/>
</g>
<defs>
<filter id="filter0_i_394_540" x="0.807617" y="0.624023" width="17.0801" height="19.9273" filterUnits="userSpaceOnUse" color-interpolation-filters="sRGB">
<feFlood flood-opacity="0" result="BackgroundImageFix"/>
<feBlend mode="normal" in="SourceGraphic" in2="BackgroundImageFix" result="shape"/>
<feColorMatrix in="SourceAlpha" type="matrix" values="0 0 0 0 0 0 0 0 0 0 0 0 0 0 0 0 0 0 127 0" result="hardAlpha"/>
<feOffset dy="2.84674"/>
<feGaussianBlur stdDeviation="5.33764"/>
<feComposite in2="hardAlpha" operator="arithmetic" k2="-1" k3="1"/>
<feColorMatrix type="matrix" values="0 0 0 0 0 0 0 0 0 0 0 0 0 0 0 0 0 0 0.2 0"/>
<feBlend mode="normal" in2="shape" result="effect1_innerShadow_394_540"/>
</filter>
<clipPath id="clip0_394_540">
<rect width="17.0805" height="17.0805" fill="white" transform="translate(0.807617 0.624023)"/>
</clipPath>
</defs>
</svg>
