<?xml version="1.0" encoding="UTF-8"?>
<svg version="1.1" xmlns="http://www.w3.org/2000/svg" width="1024" height="1024">
<path d="M0 0 C337.92 0 675.84 0 1024 0 C1024 337.92 1024 675.84 1024 1024 C686.08 1024 348.16 1024 0 1024 C0 686.08 0 348.16 0 0 Z " fill="#2C6080" transform="translate(0,0)"/>
<path d="M0 0 C4.83457983 1.51477454 7.97196269 4.26637655 11.6875 7.5625 C12.30254395 8.0997168 12.91758789 8.63693359 13.55126953 9.19042969 C15.37387042 10.78657039 17.18775318 12.39212271 19 14 C19.94230469 14.82886719 20.88460938 15.65773438 21.85546875 16.51171875 C27.09271958 21.16434623 32.09347963 26.00205378 37 31 C39.43625654 33.44798811 41.88056946 35.88412865 44.359375 38.2890625 C49.88638523 43.68963785 54.86301534 49.31316781 59.671875 55.35546875 C61.16506327 57.20438717 62.68923662 59.02477264 64.21875 60.84375 C82.49615067 82.62675715 98.92216644 106.28660296 113 131 C113.37753418 131.66032227 113.75506836 132.32064453 114.14404297 133.00097656 C119.26281138 141.99278615 124.17226295 151.09906558 129 160.25 C129.50764893 161.20986816 130.01529785 162.16973633 130.53833008 163.15869141 C133.08416 168.04808765 135.45064035 172.94585099 137.5625 178.0390625 C142.4582054 189.82714932 145.89510683 196.25774343 157 203 C172.27389331 215.42659239 187.76027058 233.65579107 190 254 C190.98263502 269.12556042 188.70014278 287.44135315 180.91015625 300.88012695 C178.01645049 307.61994646 181.62721989 318.00800642 182.9375 325 C184.79418567 335.30665358 186.12718282 345.56662408 187 356 C187.11214844 357.27230469 187.22429687 358.54460937 187.33984375 359.85546875 C188.648889 377.15997102 188.57380348 394.71626541 187 412 C188.05574219 412.52787109 188.05574219 412.52787109 189.1328125 413.06640625 C190.12023437 413.56011719 191.10765625 414.05382812 192.125 414.5625 C193.18678467 415.09061279 194.24856934 415.61872559 195.3425293 416.1628418 C197.6477978 417.31414884 199.93422989 418.4891256 202.2175293 419.68457031 C210.4952828 423.9716037 218.80730632 427.2926967 227.6875 430.1875 C228.89599609 430.59935547 230.10449219 431.01121094 231.34960938 431.43554688 C251.25966302 438.02350904 271.52727377 440.29479968 292.3125 442.5 C352.05356407 448.85670792 352.05356407 448.85670792 376 461 C377.22808871 461.58170832 378.45734927 462.16094631 379.6875 462.73828125 C388.75881974 467.05458956 397.10277556 472.04050541 405.31738281 477.81689453 C406.85672041 478.89925524 408.4082494 479.96422353 409.9609375 481.02734375 C423.55868061 490.55355633 438.29107767 503.66886199 447 518 C447 518.66 447 519.32 447 520 C447.66 520 448.32 520 449 520 C450.515625 522.0546875 450.515625 522.0546875 452.25 524.875 C452.86488281 525.87015625 453.47976563 526.8653125 454.11328125 527.890625 C454.73589844 528.91671875 455.35851562 529.9428125 456 531 C456.59167969 531.96421875 457.18335938 532.9284375 457.79296875 533.921875 C462 540.83699525 462 540.83699525 462 542 C220.44 542 -21.12 542 -270 542 C-270 446.63 -270 351.26 -270 253 C-250.12345083 260.95061967 -233.12178144 274.89356043 -216.82568359 288.47851562 C-215.11482341 289.90430871 -213.396153 291.32008799 -211.67578125 292.734375 C-204.72121222 298.49412488 -198.09439277 304.56022369 -191.5546875 310.78662109 C-188.61934934 313.5768297 -185.68994275 316.28838112 -182.52734375 318.8203125 C-181.69332031 319.53960938 -180.85929687 320.25890625 -180 321 C-180 321.66 -180 322.32 -180 323 C-179.45859375 323.2165625 -178.9171875 323.433125 -178.359375 323.65625 C-175.18354656 325.46499997 -172.79271919 327.91723799 -170.25 330.5 C-169.74339844 330.99886719 -169.23679687 331.49773437 -168.71484375 332.01171875 C-165 335.74658861 -165 335.74658861 -165 338 C-163.68 338.66 -162.36 339.32 -161 340 C-161 340.66 -161 341.32 -161 342 C-160.34 342 -159.68 342 -159 342 C-157.51953125 343.50390625 -157.51953125 343.50390625 -155.8125 345.5625 C-152.81322507 349.10996174 -149.66004868 352.36522872 -146.28515625 355.5546875 C-145 357 -145 357 -145 359 C-144.01 359.33 -143.02 359.66 -142 360 C-142 360.66 -142 361.32 -142 362 C-141.34 362 -140.68 362 -140 362 C-138.5546875 363.46875 -138.5546875 363.46875 -136.875 365.5 C-133.1384124 369.90524012 -129.13056634 373.96599235 -125 378 C-122.38524521 369.78219924 -120.17205454 360.63566367 -121 352 C-122.87097117 348.8558188 -122.87097117 348.8558188 -125.5 345.9375 C-134.23404263 335.24958509 -139.84178477 324.52501209 -143 311 C-143.1743457 310.38745361 -143.34869141 309.77490723 -143.52832031 309.14379883 C-148.17178129 288.03912447 -142.11613457 267.25080404 -132 249 C-131.25295944 247.60988339 -130.50687349 246.21925338 -129.76171875 244.828125 C-125.38486349 236.75622663 -120.5677013 229.31595951 -115 222 C-113.72747909 220.20953153 -112.45667646 218.41784074 -111.1875 216.625 C-104.20836344 207.06250088 -96.36739619 198.28474183 -88.3125 189.625 C-87.70720459 188.97120361 -87.10190918 188.31740723 -86.47827148 187.64379883 C-81.45832339 182.30428205 -76.1693028 177.35083149 -70.27734375 172.98046875 C-62.55027032 167.05938911 -60.01920781 159.87585436 -57.02392578 151 C-55.20130501 145.65990365 -53.24746223 140.36661948 -51.31451416 135.06570435 C-50.54915678 132.96334757 -49.78767108 130.8596195 -49.02685547 128.75561523 C-43.25928638 112.83145701 -37.19686862 97.02069059 -31.13877869 81.20532227 C-28.64942147 74.7047674 -26.17328635 68.19927737 -23.703125 61.69140625 C-22.99189214 59.81891758 -22.28062941 57.94644026 -21.56933594 56.07397461 C-20.55423267 53.40168717 -19.53951162 50.72925988 -18.52648926 48.05618286 C-14.67626353 37.89892424 -10.7484352 27.77859077 -6.68249512 17.70547485 C-4.32102166 11.84849685 -2.0792013 5.96402478 0 0 Z " fill="#2B5E7E" transform="translate(270,482)"/>
<path d="M0 0 C1.77062515 1.77062515 1.50965387 4.46921295 1.8125 6.875 C4.03745684 21.53730552 10.11338248 33.16348191 22.18359375 42.15625 C40.35462829 54.05185098 60.38600841 57.99878157 81.71313477 53.96777344 C100.67352044 49.74308464 116.51089777 39.45918413 127 23 C128.89252861 19.40881157 130.51479234 15.77564839 132 12 C132.37253906 11.07058594 132.74507812 10.14117188 133.12890625 9.18359375 C133.41636719 8.46300781 133.70382812 7.74242187 134 7 C137.08897808 8.54448904 137.39311473 10.98948902 138.65234375 14.15625 C139.03601105 15.1171479 139.03601105 15.1171479 139.4274292 16.09745789 C140.27345366 18.2280913 141.10680356 20.36334653 141.9375 22.5 C142.37009628 23.6074205 142.37009628 23.6074205 142.81143188 24.73721313 C161.04472741 71.53724135 173.88568617 120.25545626 181 170 C181.11714355 170.80872559 181.23428711 171.61745117 181.35498047 172.45068359 C182.90260332 183.62898175 183.19876553 194.79341204 183.25 206.0625 C183.2593457 207.370979 183.26869141 208.67945801 183.27832031 210.02758789 C183.23626257 222.68292571 182.23497966 234.48134806 173.875 244.5625 C169.73245531 247.73845093 164.97423181 247.63364206 160 247 C153.74337981 244.37257003 148.55056849 240.24916292 143.4375 235.875 C135.62989093 229.37484091 127.51552099 223.53393478 119 218 C117.99710938 217.34257813 116.99421875 216.68515625 115.9609375 216.0078125 C93.42537134 202.03948636 67.22339864 197.59786047 41.125 202 C17.62301012 207.74256766 -3.73049262 220.61773119 -23.84228516 233.6171875 C-38.52118807 243.02444097 -53.8615133 252.35303336 -70 259 C-70.99 259.433125 -71.98 259.86625 -73 260.3125 C-79.03628368 261.69581501 -84.77471892 262.05195106 -90.4375 259.375 C-96.20503922 254.02947584 -98.68052452 248.27063549 -99.265625 240.44921875 C-99.22297101 230.1802695 -98.43981391 220.16714311 -97 210 C-96.89236328 209.22027832 -96.78472656 208.44055664 -96.67382812 207.63720703 C-86.72923229 138.17954265 -61.71823021 70.08571333 -39 4 C-34.56441417 3.32017517 -30.12628483 2.65858662 -25.6875 2 C-24.44419922 1.80921875 -23.20089844 1.6184375 -21.91992188 1.421875 C-14.63416451 0.35100253 -7.37514569 -0.62327727 0 0 Z " fill="#FDFDF6" transform="translate(261,653)"/>
<path d="M0 0 C4.83457983 1.51477454 7.97196269 4.26637655 11.6875 7.5625 C12.30254395 8.0997168 12.91758789 8.63693359 13.55126953 9.19042969 C15.37387042 10.78657039 17.18775318 12.39212271 19 14 C19.94230469 14.82886719 20.88460937 15.65773438 21.85546875 16.51171875 C27.09271958 21.16434623 32.09347963 26.00205378 37 31 C39.43625654 33.44798811 41.88056946 35.88412865 44.359375 38.2890625 C49.88638523 43.68963785 54.86301534 49.31316781 59.671875 55.35546875 C61.16506327 57.20438717 62.68923662 59.02477264 64.21875 60.84375 C82.49615067 82.62675715 98.92216644 106.28660296 113 131 C113.37753418 131.66032227 113.75506836 132.32064453 114.14404297 133.00097656 C119.26281138 141.99278615 124.17226295 151.09906558 129 160.25 C129.50764893 161.20986816 130.01529785 162.16973633 130.53833008 163.15869141 C133.08416 168.04808765 135.45064035 172.94585099 137.5625 178.0390625 C142.4582054 189.82714932 145.89510683 196.25774343 157 203 C172.27389331 215.42659239 187.76027058 233.65579107 190 254 C190.98263502 269.12556042 188.70014278 287.44135315 180.91015625 300.88012695 C178.01645049 307.61994646 181.62721989 318.00800642 182.9375 325 C184.79418567 335.30665358 186.12718282 345.56662408 187 356 C187.11214844 357.27230469 187.22429687 358.54460937 187.33984375 359.85546875 C191.48418238 414.64021917 191.48418238 414.64021917 176.78125 432.34375 C171.87570035 436.90505055 166.30064499 439.25894732 159.625 439.625 C146.35338954 438.93338086 134.56369608 430.2145206 124.875 421.8125 C99.28512425 399.62124952 72.40085791 387.02038516 38 389 C7.54390537 391.75141925 -21.12783563 411.1745315 -45.73242188 427.88525391 C-58.3566147 436.43723512 -71.43260648 444.26817998 -86 449 C-86.73347656 449.24363281 -87.46695313 449.48726562 -88.22265625 449.73828125 C-95.31201335 451.8101212 -103.20349868 452.15750664 -110.05859375 449.15234375 C-119.43953982 443.58417657 -122.69397605 434.91807185 -126 425 C-126.27097395 420.25549242 -126.24402705 415.50147991 -126.25 410.75 C-126.25167175 410.05659515 -126.25334351 409.36319031 -126.25506592 408.64877319 C-126.2569018 395.91453101 -125.1300933 383.56407603 -123 371 C-122.78730469 369.73542969 -122.57460937 368.47085937 -122.35546875 367.16796875 C-122.03114404 365.27568573 -121.69437619 363.38537203 -121.33203125 361.5 C-120.43107794 354.93974369 -120.43107794 354.93974369 -122.90625 348.96484375 C-123.7621875 347.96582031 -124.618125 346.96679688 -125.5 345.9375 C-134.23404263 335.24958509 -139.84178477 324.52501209 -143 311 C-143.1743457 310.38745361 -143.34869141 309.77490723 -143.52832031 309.14379883 C-148.17178129 288.03912447 -142.11613457 267.25080404 -132 249 C-131.25295944 247.60988339 -130.50687349 246.21925338 -129.76171875 244.828125 C-125.38486349 236.75622663 -120.5677013 229.31595951 -115 222 C-113.72747909 220.20953153 -112.45667646 218.41784074 -111.1875 216.625 C-104.20836344 207.06250088 -96.36739619 198.28474183 -88.3125 189.625 C-87.70720459 188.97120361 -87.10190918 188.31740723 -86.47827148 187.64379883 C-81.45832339 182.30428205 -76.1693028 177.35083149 -70.27734375 172.98046875 C-62.55027032 167.05938911 -60.01920781 159.87585436 -57.02392578 151 C-55.20130501 145.65990365 -53.24746223 140.36661948 -51.31451416 135.06570435 C-50.54915678 132.96334757 -49.78767108 130.8596195 -49.02685547 128.75561523 C-43.25928638 112.83145701 -37.19686862 97.02069059 -31.13877869 81.20532227 C-28.64942147 74.7047674 -26.17328635 68.19927737 -23.703125 61.69140625 C-22.99189214 59.81891758 -22.28062941 57.94644026 -21.56933594 56.07397461 C-20.55423267 53.40168717 -19.53951162 50.72925988 -18.52648926 48.05618286 C-14.67626353 37.89892424 -10.7484352 27.77859077 -6.68249512 17.70547485 C-4.32102166 11.84849685 -2.0792013 5.96402478 0 0 Z M-34.6875 173 C-35.97333984 173.19078125 -37.25917969 173.3815625 -38.58398438 173.578125 C-41.72378797 174.04501029 -44.86231786 174.51909977 -48 175 C-95.76946223 300.73027331 -95.76946223 300.73027331 -105.28125 423.78515625 C-102.99174019 427.74293694 -100.09053284 429.95473358 -96 432 C-72.01614907 435.05805021 -44.37693273 411.99481502 -25.27734375 400.046875 C5.22190396 381.04383226 37.93447971 364.90667031 74.9375 373.5 C96.50662184 379.19849575 114.2057506 390.83500048 131.35791016 404.68457031 C134.04004514 406.83314945 136.76399366 408.92023135 139.5 411 C140.4178125 411.70125 141.335625 412.4025 142.28125 413.125 C148.24232892 417.23608891 152.82839436 418.96949484 160 418 C166.86976185 415.09943389 169.48466944 409.34620571 172.16796875 402.79296875 C178.19019534 382.57751329 174.13019446 356.42630704 171 336 C170.79914795 334.61047119 170.79914795 334.61047119 170.59423828 333.19287109 C163.60085017 285.01902308 150.4342395 237.39946957 132.5 192.1875 C132.23834045 191.52413635 131.97668091 190.86077271 131.70709229 190.17730713 C130.96957496 188.3165972 130.21947379 186.46088973 129.46875 184.60546875 C128.82583008 183.01448364 128.82583008 183.01448364 128.16992188 181.39135742 C127.23308142 178.86366553 127.23308142 178.86366553 125 178 C124.36384766 179.57587891 124.36384766 179.57587891 123.71484375 181.18359375 C119.34554425 191.74210536 114.49388496 200.14315641 106 208 C105.071875 208.928125 104.14375 209.85625 103.1875 210.8125 C87.63280502 223.81394052 67.09113161 227.40757361 47.42724609 226.21875 C30.8048846 224.72069771 13.75864044 216.49285125 3.046875 203.66015625 C-3.6752825 194.72081654 -6.22259831 185.54010691 -7.60546875 174.5546875 C-7.7313321 172.07170112 -7.7313321 172.07170112 -9 171 C-17.64188892 170.26966963 -26.17076242 171.69312891 -34.6875 173 Z " fill="#131518" transform="translate(270,482)"/>
<path d="M0 0 C78.87 0 157.74 0 239 0 C239 137.61 239 275.22 239 417 C238.34 417.33 237.68 417.66 237 418 C232.64840439 408.47782871 228.83188759 399.10438764 226 389 C225.48375843 387.20700489 224.96324565 385.41523136 224.4375 383.625 C224.22996094 382.89539063 224.02242187 382.16578125 223.80859375 381.4140625 C222.99856447 378.8571514 222.99856447 378.8571514 221.61328125 375.953125 C219.3940366 370.86011193 218.14335028 365.48915946 216.75 360.125 C216.13110594 357.79012648 215.51129066 355.45549697 214.890625 353.12109375 C214.57673828 351.93628418 214.26285156 350.75147461 213.93945312 349.53076172 C209.92131343 334.42932297 205.6572432 319.47267058 200.578125 304.69140625 C199.44484104 301.35693613 198.34641529 298.0141909 197.296875 294.65234375 C197.04776367 293.85691162 196.79865234 293.06147949 196.54199219 292.24194336 C196 290 196 290 196 286 C195.34 286 194.68 286 194 286 C193.72027344 285.175 193.44054687 284.35 193.15234375 283.5 C188.45645433 269.97100668 182.81369981 257.22371654 176 244.625 C175.51394287 243.72201172 175.02788574 242.81902344 174.52709961 241.88867188 C171.52494042 236.43183844 168.22817447 231.32672457 164.60253906 226.26416016 C162.55658207 223.37351342 160.72556166 220.39433745 158.875 217.375 C154.0374972 209.68101601 148.32844674 202.76874752 142.50439453 195.80859375 C140.44838184 193.33684075 138.44723656 190.82193513 136.4375 188.3125 C132.47151513 183.44549064 128.23704263 178.85787417 123.89624023 174.32543945 C121.59395038 171.89111594 120.07361286 170.22083858 119 167 C117.67881359 166.30957355 116.34327311 165.64640513 115 165 C113.64245622 163.77740093 112.33152047 162.50175289 111.0625 161.1875 C110.36640625 160.47335938 109.6703125 159.75921875 108.953125 159.0234375 C108.30859375 158.35570312 107.6640625 157.68796875 107 157 C106.113125 156.113125 105.22625 155.22625 104.3125 154.3125 C97 147 97 147 95.41015625 145.375 C90.49967169 140.38657124 85.33466709 135.75362661 79.9375 131.296875 C79.298125 130.76578125 78.65875 130.2346875 78 129.6875 C77.4225 129.21699219 76.845 128.74648437 76.25 128.26171875 C75 127 75 127 75 125 C73.515 124.505 73.515 124.505 72 124 C72 123.34 72 122.68 72 122 C71.44957031 121.77570313 70.89914062 121.55140625 70.33203125 121.3203125 C67.27416852 119.58906024 65.15178174 117.37762275 62.6875 114.875 C62.20039551 114.3807251 61.71329102 113.8864502 61.21142578 113.37719727 C57.9420734 110.03469894 54.7989093 106.61085326 51.76953125 103.05078125 C48.84072554 99.65646999 45.77071189 96.3887811 42.72265625 93.1015625 C41 91 41 91 41 89 C40.34 89 39.68 89 39 89 C37.27187841 86.95598522 35.69016764 84.91536732 34.125 82.75 C33.64321289 82.08685791 33.16142578 81.42371582 32.66503906 80.74047852 C16.9747892 58.73321081 1.7945125 32.42115386 -1 5 C-0.67 3.35 -0.34 1.7 0 0 Z " fill="#2B5E7E" transform="translate(785,0)"/>
<path d="M0 0 C0.50748779 0.24645264 1.01497559 0.49290527 1.5378418 0.74682617 C48.09225713 23.27994147 87.19295472 24.88257832 137.1418457 12.81030273 C149.12916182 9.92622849 161.1482224 7.66320446 173.3125 5.6875 C174.09814331 5.55844269 174.88378662 5.42938538 175.6932373 5.29641724 C208.85790602 -0.11645785 243.23652761 0.18515339 276 8 C276.84675293 8.1954541 277.69350586 8.3909082 278.56591797 8.59228516 C294.71265439 12.38425329 309.83857089 18.33197594 325 25 C325.79132324 25.34788574 326.58264648 25.69577148 327.39794922 26.05419922 C343.49076368 33.27855088 360.80134489 43.25382847 374 55 C374 55.66 374 56.32 374 57 C374.59441895 57.2774707 375.18883789 57.55494141 375.80126953 57.84082031 C377.85835798 58.92532575 379.42250295 60.03821982 381.1796875 61.546875 C381.77217285 62.05524902 382.3646582 62.56362305 382.97509766 63.08740234 C383.60206543 63.63605957 384.2290332 64.1847168 384.875 64.75 C385.85605713 65.60585693 385.85605713 65.60585693 386.85693359 66.47900391 C391.57863718 70.64521295 396.15277982 74.94246341 400.625 79.375 C401.19202637 79.9328418 401.75905273 80.49068359 402.34326172 81.06542969 C405.55002232 84.29615711 408.22462986 87.62127974 410.80102539 91.36914062 C412.61245206 93.8330645 414.8192226 95.86277115 417 98 C424.73197097 106.83097368 431.49862002 116.33299075 437.82958984 126.19873047 C438.95049192 127.92380671 440.1029894 129.6219625 441.26953125 131.31640625 C447.53864353 140.61577245 452.27232658 150.4671501 456.92675781 160.65673828 C457.85034916 162.67326006 458.78986831 164.68053767 459.7421875 166.68359375 C463 173.61334746 463 173.61334746 463 177 C438.47864624 177.25696465 413.95749423 177.4509388 389.43506527 177.56993389 C378.04878165 177.62665443 366.66333456 177.70398158 355.27758789 177.82983398 C345.35366895 177.93947578 335.43035577 178.01044034 325.50584799 178.03497344 C320.25051577 178.04931508 314.99691649 178.08301102 309.74213982 178.16303062 C304.79465757 178.2377596 299.8496196 178.26071748 294.90162659 178.24418449 C293.08707955 178.24720824 291.27244997 178.2690605 289.45839119 178.31126022 C275.74787968 178.6145294 275.74787968 178.6145294 271.45065498 174.64515114 C269.6381541 171.82747879 268.32170182 169.07206622 267 166 C265.89016339 164.28861081 264.74934777 162.59641008 263.5625 160.9375 C261 157.23759791 261 157.23759791 261 155 C260.34 155 259.68 155 259 155 C257.81436542 153.48299575 256.70347878 151.90746545 255.625 150.3125 C252.28962777 145.60517393 248.72946834 141.29691329 244.8125 137.0625 C244.31379395 136.51956299 243.81508789 135.97662598 243.30126953 135.41723633 C241.00815177 132.96750982 238.78456969 130.83041843 236.13671875 128.74609375 C235.07904297 127.88177734 235.07904297 127.88177734 234 127 C234 126.34 234 125.68 234 125 C233.40832031 124.7215625 232.81664062 124.443125 232.20703125 124.15625 C230.15059327 123.07889488 228.50310481 121.93578863 226.6875 120.5 C188.09741782 91.14576309 147.92635733 83.07208696 100.51318359 78.14819336 C79.11409583 75.90722383 58.52833732 72.67299581 38.125 65.6875 C36.99078613 65.30432617 35.85657227 64.92115234 34.68798828 64.52636719 C22.95650235 60.45909499 12.22295227 55.13278776 1.6015625 48.71484375 C1.07304687 48.47894531 0.54453125 48.24304688 0 48 C-0.99 48.495 -0.99 48.495 -2 49 C-1.93941406 48.1440625 -1.87882812 47.288125 -1.81640625 46.40625 C-0.81200884 30.95398213 -0.44048478 15.476454 0 0 Z " fill="#366C8C" transform="translate(458,847)"/>
<path d="M0 0 C48.18 0 96.36 0 146 0 C146 14.19 146 28.38 146 43 C112.67 43 79.34 43 45 43 C44.67 50.92 44.34 58.84 44 67 C42.36181818 85.94147727 42.36181818 85.94147727 41 95 C41.52174805 94.85925049 42.04349609 94.71850098 42.58105469 94.57348633 C50.33650951 92.73815811 58.01896352 92.6616496 65.93896484 92.68432617 C68.23193461 92.68747519 70.52359604 92.66399457 72.81640625 92.63867188 C82.2964419 92.59772788 90.79647826 93.54497004 100 96 C100.7532959 96.19343994 101.5065918 96.38687988 102.28271484 96.58618164 C121.03436984 101.68784066 136.80521186 113.35381933 146.80859375 130.01171875 C158.15379624 151.01864207 160.38415629 175.00743711 154 198 C146.72417158 221.02288204 131.04668313 238.48298682 110 250 C75.9006703 267.27320038 35.70447884 266.39665316 -0.16796875 255.59765625 C-5.18522158 253.93875859 -10.09356796 251.96257281 -15 250 C-15 235.15 -15 220.3 -15 205 C-8.73 207.97 -2.46 210.94 4 214 C7.36008242 215.27499983 10.5185215 216.44930594 13.9375 217.4375 C15.12400146 217.79158936 15.12400146 217.79158936 16.33447266 218.15283203 C37.97679485 224.44950439 62.82416914 224.88863467 83.00390625 213.87109375 C92.4179419 207.99192416 97.80137926 198.98590868 100.375 188.1875 C102.52274227 174.43752111 101.3253023 162.11713938 93.78125 150.3203125 C86.14267498 140.37006346 73.17610376 135.50124499 61.06542969 133.71459961 C37.1180125 130.84057242 14.92308585 134.26127205 -8 141 C-8.1387369 130.93155519 -7.90541206 121.05127436 -6.94622803 111.0166626 C-4.71839097 87.41129106 -3.63301039 63.71751942 -2.35839844 40.04663086 C-2.31670721 39.27332648 -2.27501598 38.50002211 -2.23206139 37.70328426 C-2.03505451 34.04615438 -1.83925155 30.38897069 -1.64651489 26.73161316 C-1.57538754 25.39610751 -1.5042515 24.06060232 -1.43310547 22.72509766 C-1.37331512 21.59093414 -1.31352478 20.45677063 -1.25192261 19.28823853 C-0.8740684 12.85638644 -0.42857809 6.42867139 0 0 Z " fill="#FDFCF6" transform="translate(740,496)"/>
<path d="M0 0 C15.03280962 12.97352063 24.00800236 29.89075111 25.62890625 49.7265625 C25.77627499 58.54105531 24.95091772 67.24441118 23.31640625 75.90234375 C23.1143457 76.97693848 23.1143457 76.97693848 22.90820312 78.07324219 C18.81132206 98.58425065 8.46158564 115.88587724 -4.68359375 131.90234375 C-5.15297363 132.47919922 -5.62235352 133.05605469 -6.10595703 133.65039062 C-16.6403348 146.53517071 -28.11298325 158.50010382 -39.89135742 170.24047852 C-41.88252152 172.22624051 -43.86822596 174.21735115 -45.85351562 176.20898438 C-57.11731307 187.47875992 -57.11731307 187.47875992 -63.02172852 192.48999023 C-66.32451595 195.29689861 -69.4641191 198.28969494 -72.6328125 201.24609375 C-76.4695455 204.79531962 -76.4695455 204.79531962 -78.68359375 205.90234375 C-43.04359375 206.23234375 -7.40359375 206.56234375 29.31640625 206.90234375 C29.31640625 220.43234375 29.31640625 233.96234375 29.31640625 247.90234375 C-27.44359375 247.90234375 -84.20359375 247.90234375 -142.68359375 247.90234375 C-142.68359375 212.90234375 -142.68359375 212.90234375 -134.68359375 202.65234375 C-130.18359375 199.07421875 -130.18359375 199.07421875 -127.88452148 197.45727539 C-119.77056392 191.72485213 -112.9178486 184.2916755 -105.92895508 177.27807617 C-104.1249729 175.46873442 -102.3157071 173.66480056 -100.50585938 171.86132812 C-95.18291207 166.54112843 -89.93420712 161.22106061 -85.05102539 155.48803711 C-83.20310105 153.34515751 -81.21369915 151.37184899 -79.18359375 149.40234375 C-75.13629604 145.38899988 -71.33878783 141.27478346 -67.68359375 136.90234375 C-67.21405273 136.3412793 -66.74451172 135.78021484 -66.26074219 135.20214844 C-53.55202198 119.95638242 -41.3490754 104.17349301 -34.24609375 85.46484375 C-33.99899658 84.81475342 -33.75189941 84.16466309 -33.49731445 83.49487305 C-29.39593696 72.10898124 -28.67997942 58.10361673 -33.68359375 46.90234375 C-38.05642855 38.28281362 -44.11759832 33.33182149 -53.234375 30.26953125 C-59.04112868 28.61091767 -64.6081073 28.36488258 -70.62109375 28.40234375 C-71.71429932 28.40878906 -72.80750488 28.41523437 -73.93383789 28.421875 C-95.20450153 28.89403869 -114.76104077 37.34745127 -132.15625 49.21484375 C-134.68359375 50.90234375 -134.68359375 50.90234375 -135.68359375 50.90234375 C-136.47366184 41.80479796 -137.06858642 32.70938672 -137.25341797 23.5793457 C-137.29054364 22.15657842 -137.34556223 20.73417751 -137.41748047 19.31274414 C-137.99986419 7.53490563 -137.99986419 7.53490563 -134.9543457 3.75756836 C-132.60112807 2.1393311 -130.31227737 1.01217075 -127.68359375 -0.09765625 C-126.19093867 -0.88728882 -124.7000061 -1.68018729 -123.2109375 -2.4765625 C-121.68627069 -3.21542555 -120.15612274 -3.94306946 -118.62109375 -4.66015625 C-117.38564819 -5.23757568 -117.38564819 -5.23757568 -116.12524414 -5.82666016 C-108.48875866 -9.31363311 -100.83934816 -12.10655199 -92.68359375 -14.09765625 C-92.02166016 -14.25991699 -91.35972656 -14.42217773 -90.67773438 -14.58935547 C-61.36688925 -21.38414229 -24.43991296 -19.10368742 0 0 Z " fill="#FCFCF5" transform="translate(671.68359375,507.09765625)"/>
<path d="M0 0 C82.82130584 0 82.82130584 0 98 7 C98.88558594 7.38542969 99.77117187 7.77085937 100.68359375 8.16796875 C115.86972244 15.5133161 125.24078576 29.11040113 131.3125 44.4375 C135.17363266 56.42935414 136.48842889 67.9345995 136.375 80.5 C136.38660156 81.78519531 136.39820313 83.07039063 136.41015625 84.39453125 C136.34497127 106.0142156 130.16769366 125.59459102 115.50390625 141.75 C85.24023897 171.24920614 37.96208428 163 0 163 C0 109.21 0 55.42 0 0 Z " fill="#FBFBF5" transform="translate(606,262)"/>
<path d="M0 0 C12.3930131 3.37991266 12.3930131 3.37991266 16.4375 5.3125 C17.34266357 5.74264404 18.24782715 6.17278809 19.18041992 6.6159668 C20.57611206 7.30106323 20.57611206 7.30106323 22 8 C22.99040283 8.48057861 23.98080566 8.96115723 25.0012207 9.45629883 C53.0346849 23.25196807 78.19617507 41.1438708 100.375 63.125 C101.03612793 63.77686279 101.69725586 64.42872559 102.37841797 65.1003418 C102.98314941 65.70918213 103.58788086 66.31802246 104.2109375 66.9453125 C104.75024902 67.48687988 105.28956055 68.02844727 105.84521484 68.58642578 C107 70 107 70 107 72 C107.66 72 108.32 72 109 72 C110.37491299 73.50787161 111.67364462 75.08539761 112.9375 76.6875 C115.4947463 79.89844752 118.04738411 83.08516597 120.7578125 86.16796875 C126.28302457 92.46763523 131.01004322 98.79037621 135.24609375 106.02734375 C136.98014714 109.08769054 136.98014714 109.08769054 139.28515625 112.06640625 C141 115 141 115 140.9921875 117.39453125 C139.62885789 120.97461335 137.91594926 124.30499544 136.125 127.6875 C133.05029745 133.66654078 130.49988636 139.4148825 129 146 C128.83516113 146.61359375 128.67032227 147.2271875 128.50048828 147.859375 C123.21010673 168.81325017 127.0784926 190.62717176 138 209 C141.27714359 213.87880748 144.84393304 218.60173168 148.7734375 222.97265625 C153.13693626 230.18493605 147.74227614 245.07757453 146 253 C145.29488281 252.29230469 144.58976563 251.58460938 143.86328125 250.85546875 C141.9573471 248.94819003 140.03725657 247.05685232 138.10546875 245.17578125 C137.13278804 244.2213791 136.16013192 243.26695188 135.1875 242.3125 C134.43436523 241.58450195 134.43436523 241.58450195 133.66601562 240.84179688 C132.40582727 239.59875394 131.19808956 238.30300108 130 237 C130 236.34 130 235.68 130 235 C129.34 235 128.68 235 128 235 C126.625 233.6015625 126.625 233.6015625 125 231.625 C121.23777988 227.17078591 117.13941718 223.14316468 112.94140625 219.1015625 C111 217 111 217 111 215 C110.34 215 109.68 215 109 215 C107.625 213.6015625 107.625 213.6015625 106 211.625 C98.89229225 202.73197785 98.89229225 202.73197785 90 196 C90 195.34 90 194.68 90 194 C89.44828125 193.77699219 88.8965625 193.55398438 88.328125 193.32421875 C85.2694324 191.58445903 83.1926188 189.34235518 80.75 186.8125 C76.33748782 182.30822738 71.80626724 178.07829561 67 174 C65.96143394 173.09858363 64.92375043 172.19614991 63.88671875 171.29296875 C55.790982 164.26218843 47.54007142 157.48424967 39 151 C38.3301709 150.48824219 37.6603418 149.97648438 36.97021484 149.44921875 C25.10887933 140.44435356 13.06334959 133.4647712 0 126 C0 84.42 0 42.84 0 0 Z " fill="#366C8C" transform="translate(0,609)"/>
<path d="M0 0 C10.89 0 21.78 0 33 0 C33.33 23.76 33.66 47.52 34 72 C34.99 72.495 34.99 72.495 36 73 C36.27440918 72.41855225 36.54881836 71.83710449 36.83154297 71.23803711 C37.97291512 69.05187779 39.2305454 67.17254979 40.6953125 65.19140625 C41.23816895 64.45510986 41.78102539 63.71881348 42.34033203 62.96020508 C42.92927246 62.1689624 43.51821289 61.37771973 44.125 60.5625 C44.74101074 59.73065186 45.35702148 58.89880371 45.99169922 58.04174805 C51.97965328 49.97942245 58.07198924 41.9972744 64.171875 34.01953125 C68.03810833 28.9593141 71.86516671 23.87060473 75.66845703 18.76293945 C76.55673054 17.57281403 77.46316695 16.39609773 78.38427734 15.23120117 C80.14797528 12.88291655 80.14797528 12.88291655 81.88525391 9.66918945 C87.12952473 0.93283494 87.12952473 0.93283494 92.07891846 -0.67559814 C97.91845012 -1.61495431 103.75131684 -1.18742752 109.625 -0.8125 C111.40994462 -0.74718924 113.19511992 -0.68789128 114.98046875 -0.63476562 C119.32607279 -0.49246709 123.6604638 -0.26887433 128 0 C120.58913511 9.90952919 113.03733432 19.70440231 105.38134766 29.42529297 C101.04129274 34.93874228 96.73032506 40.47455631 92.42749023 46.01708984 C89.32792407 50.00947739 86.22146967 53.99613616 83.1015625 57.97265625 C82.46710205 58.7831543 81.8326416 59.59365234 81.17895508 60.42871094 C79.96488309 61.97929288 78.74868599 63.52821405 77.5300293 65.07519531 C76.98000244 65.77870117 76.42997559 66.48220703 75.86328125 67.20703125 C75.38157471 67.8203833 74.89986816 68.43373535 74.40356445 69.06567383 C72.78460973 71.29684068 71.38916804 73.62036619 70 76 C70.38518799 76.55010742 70.77037598 77.10021484 71.16723633 77.66699219 C81.46872137 92.39332686 91.60838415 107.22167392 101.68214417 122.10412598 C105.10723545 127.16249171 108.54891778 132.20934113 112 137.25 C112.50901855 137.9939502 113.01803711 138.73790039 113.54248047 139.50439453 C116.09822852 143.236136 118.66320757 146.96125327 121.23828125 150.6796875 C121.75583984 151.42831055 122.27339844 152.17693359 122.80664062 152.94824219 C123.78632531 154.36440118 124.76799268 155.77919131 125.75195312 157.19238281 C129 161.88861901 129 161.88861901 129 163 C123.30784332 163.27322046 117.61954402 163.47207961 111.92236328 163.60424805 C109.98776754 163.65936059 108.05362583 163.73428109 106.12060547 163.82983398 C90.13828045 164.5997193 90.13828045 164.5997193 85.1550293 160.87158203 C83.06665752 158.01753288 81.53936968 155.17990081 80 152 C78.82686485 150.24094275 77.62520223 148.50054562 76.39453125 146.78125 C75.19882022 145.02198799 74.0048528 143.26153981 72.8125 141.5 C71.49884374 139.56630718 70.18503903 137.6327152 68.87109375 135.69921875 C68.22124512 134.74192871 67.57139648 133.78463867 66.90185547 132.79833984 C63.54524549 127.85951268 60.1715456 122.93239295 56.79443359 118.00756836 C53.99642588 113.9255908 51.21063992 109.83594033 48.44140625 105.734375 C47.85504395 104.86901123 47.26868164 104.00364746 46.66455078 103.11206055 C45.54347862 101.45707658 44.42576232 99.79981255 43.31201172 98.13989258 C39.62920021 92.66749693 39.62920021 92.66749693 35 88 C34.34 88 33.68 88 33 88 C33 112.75 33 137.5 33 163 C22.11 163 11.22 163 0 163 C0 109.21 0 55.42 0 0 Z " fill="#FCFCF5" transform="translate(767,262)"/>
<path d="M0 0 C7.57463658 6.03726589 12.90948297 13.44794527 15 23 C15.94907644 38.55863014 14.19344405 50.59972786 4 63 C3.42636719 63.69867187 2.85273438 64.39734375 2.26171875 65.1171875 C-7.32156188 75.66495248 -23.18196625 83.20546987 -37.39672852 84.16113281 C-56.80337514 84.48944433 -73.12645725 82.73162008 -88 69 C-95.80728749 60.49718578 -99.40269578 50.79035934 -99.27734375 39.35546875 C-98.08660374 24.94919175 -90.36751183 12.69811343 -80 3 C-56.26506749 -15.07371157 -24.9912564 -16.57349376 0 0 Z " fill="#BC2C20" transform="translate(373,611)"/>
<path d="M0 0 C10.89 0 21.78 0 33 0 C33.06791225 19.54201021 33.12309495 39.08392378 33.15543652 58.62602234 C33.17085728 67.7012456 33.19185435 76.77638993 33.22631836 85.8515625 C33.25636831 93.76823388 33.27560975 101.68484806 33.28226548 109.6015749 C33.28615153 113.78730166 33.29518236 117.97286486 33.31719017 122.15853882 C33.33780279 126.11150501 33.34378474 130.06424285 33.33932304 134.01725769 C33.34013733 135.45540108 33.34595369 136.89355345 33.35761642 138.33164978 C33.51803778 159.16365895 29.38571132 179.19663376 15 195 C7.5998883 202.08144661 -0.73717514 207.59108618 -11 209 C-12.81792898 206.23269322 -14.62838696 203.46057661 -16.4375 200.6875 C-16.95376953 199.90181641 -17.47003906 199.11613281 -18.00195312 198.30664062 C-18.49501953 197.54931641 -18.98808594 196.79199219 -19.49609375 196.01171875 C-19.95169678 195.31522217 -20.4072998 194.61872559 -20.87670898 193.90112305 C-22 192 -22 192 -23 189 C-22.32453125 188.48050781 -21.6490625 187.96101562 -20.953125 187.42578125 C-19.61507812 186.37970703 -19.61507812 186.37970703 -18.25 185.3125 C-17.36828125 184.62800781 -16.4865625 183.94351563 -15.578125 183.23828125 C-11.84425222 179.99660079 -9.03815561 176.50696679 -6.875 172.0625 C-6.40707031 171.12083984 -6.40707031 171.12083984 -5.9296875 170.16015625 C-0.64732617 157.88643433 -0.70288156 143.93517461 -0.68115234 130.78125 C-0.67181929 129.34047912 -0.66164583 127.89971348 -0.65071106 126.45895386 C-0.62377671 122.60466334 -0.60837238 118.75040855 -0.59528303 114.8960495 C-0.57948952 110.84683706 -0.55275249 106.797696 -0.5272522 102.74853516 C-0.48074805 95.10632947 -0.44386814 87.46410991 -0.41057932 79.82183647 C-0.37215556 71.11058304 -0.32279957 62.39940179 -0.27259517 53.68820953 C-0.16969797 35.79218673 -0.08174481 17.89613279 0 0 Z " fill="#FDFCF6" transform="translate(543,262)"/>
<path d="M0 0 C41.82063882 0 41.82063882 0 54.77734375 11.58984375 C67.99319745 25.8817975 67.84516238 45.8081535 67.15966797 64.09179688 C66.40771839 77.78785708 62.97460054 91.75934357 52.75 101.5625 C37.12746432 113.94912846 19.68880807 112 0 112 C0 75.04 0 38.08 0 0 Z " fill="#2A5D7D" transform="translate(639,288)"/>
<path d="M0 0 C8.92440714 7.87447688 14.1797812 19.05313963 15.25976562 30.83349609 C16.16500757 45.5665373 15.2293305 58.54189354 9 72 C8.69497559 72.66563965 8.38995117 73.3312793 8.07568359 74.01708984 C1.41735712 88.1612727 -8.2781816 99.76685792 -19 111 C-19.68964844 111.73089844 -20.37929688 112.46179688 -21.08984375 113.21484375 C-24.51660387 116.7537269 -28.08821329 119.92635903 -31.9375 123 C-39.38490088 128.98284924 -46.23370805 135.59932917 -53.12207031 142.20996094 C-54.65522601 143.67136208 -56.21117357 145.10882088 -57.7734375 146.5390625 C-68.1063154 156.21933758 -77.2684952 170.15933872 -78.23828125 184.53125 C-78.63262941 205.61849899 -68.68824659 222.02527237 -57.25 239 C-55.96978213 240.91088139 -54.69198574 242.82330038 -53.41790771 244.73828125 C-52.27466858 246.45506421 -51.12438189 248.16714809 -49.97363281 249.87890625 C-48.08814067 252.86061476 -46.39804415 255.75997749 -45 259 C-45.33 259.66 -45.66 260.32 -46 261 C-46.64195312 260.35675781 -47.28390625 259.71351563 -47.9453125 259.05078125 C-50.34988382 256.64536384 -52.76422714 254.24994849 -55.1796875 251.85546875 C-56.74485315 250.29954101 -58.3099557 248.7435498 -59.875 247.1875 C-61.04095703 246.03411133 -61.04095703 246.03411133 -62.23046875 244.85742188 C-66.47661456 240.62911702 -70.55294321 236.32486723 -74.45849609 231.7800293 C-76.52745203 229.39093241 -78.7053127 227.11003083 -80.875 224.8125 C-93.82091028 210.5857919 -104.03592405 194.05126804 -103.40625 174.1640625 C-101.17610662 156.79467658 -90.79408544 144.18367986 -79 132 C-78.34773438 131.319375 -77.69546875 130.63875 -77.0234375 129.9375 C-72.02070517 124.82055004 -66.62133372 120.18622799 -61.12890625 115.60546875 C-52.46089196 108.37085464 -44.16587551 100.79601792 -36 93 C-35.13117188 92.17371094 -34.26234375 91.34742188 -33.3671875 90.49609375 C-27.76478322 85.04009377 -22.79133073 79.17666945 -18 73 C-17.08927734 71.83210938 -17.08927734 71.83210938 -16.16015625 70.640625 C-2.61137071 52.32979465 4.48792954 30.31931373 1.55078125 7.51171875 C1.08967895 4.99037216 0.59170893 2.49363048 0 0 Z " fill="#E97F05" transform="translate(278,57)"/>
<path d="M0 0 C-2.8250194 3.0176063 -5.65922604 5.20520456 -9.18359375 7.35546875 C-10.68913818 8.28214355 -10.68913818 8.28214355 -12.22509766 9.22753906 C-13.28519043 9.87432617 -14.3452832 10.52111328 -15.4375 11.1875 C-48.19261544 30.3437154 -48.19261544 30.3437154 -72 59 C-72.35964844 59.7425 -72.71929687 60.485 -73.08984375 61.25 C-76.11010218 70.3755877 -74.62821523 80.66507006 -70.54296875 89.14453125 C-70.03378906 90.08683594 -69.52460938 91.02914062 -69 92 C-68.48050781 92.97324219 -67.96101563 93.94648438 -67.42578125 94.94921875 C-63.69627171 101.59974276 -59.43225235 107.76411857 -54.91796875 113.89453125 C-51.22581107 119.87266844 -50.05747127 126.11457958 -51 133 C-53.40780852 143.10159666 -57.15310207 151.05041814 -64 159 C-64.60585938 159.71671875 -65.21171875 160.4334375 -65.8359375 161.171875 C-71.21590847 167.02855226 -77.89638721 171.46831715 -85 175 C-85.66 174.67 -86.32 174.34 -87 174 C-86.61328125 173.59910156 -86.2265625 173.19820312 -85.828125 172.78515625 C-78.76918959 165.07973418 -76.13734971 158.10163802 -76.5 147.55078125 C-77.91498638 137.50216701 -84.03952029 130.51027014 -90.46875 123.0546875 C-100.11444753 111.41435499 -105.96695021 98.15898927 -105.3125 82.8203125 C-103.11726528 63.00831914 -90.96122074 47.29310344 -76 35 C-56.80100461 20.2867512 -25.2738485 -0.70205135 0 0 Z " fill="#E87F05" transform="translate(340,158)"/>
<path d="M0 0 C-1 2 -1 2 -2.7590332 2.69848633 C-3.51531006 2.90755615 -4.27158691 3.11662598 -5.05078125 3.33203125 C-5.88891357 3.57050781 -6.7270459 3.80898438 -7.59057617 4.0546875 C-8.48881104 4.30476563 -9.3870459 4.55484375 -10.3125 4.8125 C-27.49510036 9.33723532 -27.49510036 9.33723532 -42 19 C-42.31336837 21.6261012 -42.31336837 21.6261012 -42 24 C-38.34892801 26.22637734 -34.5964502 26.65943076 -30.42578125 27.10546875 C-29.64632645 27.18935349 -28.86687164 27.27323822 -28.063797 27.35966492 C-16.4704322 28.47479205 -4.82256876 28.34726536 6.8125 28.3125 C8.04444092 28.31100952 9.27638184 28.30951904 10.5456543 28.3079834 C31.5039851 28.26254859 52.17856782 27.35088698 73 25 C74.37174179 24.84860565 75.74348658 24.69723845 77.11523438 24.54589844 C93.95802211 22.66500983 110.71954233 20.22909905 127.45605469 17.57470703 C128.12576797 17.46971893 128.79548126 17.36473083 129.48548889 17.25656128 C131.29442594 16.97252358 133.10268436 16.68417341 134.91088867 16.39550781 C137.65447115 16.04423905 140.23939823 15.92126396 143 16 C131.44521464 25.21461817 114.45288346 31.36203629 100 34 C99.1656543 34.16016602 98.33130859 34.32033203 97.47167969 34.48535156 C66.61249196 40.25998096 35.36998428 41.29836191 4.06105423 41.426651 C1.97958042 41.43728502 -0.10172712 41.45485657 -2.18313599 41.47424316 C-16.9830971 41.59899849 -31.56755934 41.1289498 -46.24609375 39.22265625 C-48.05667015 38.98983192 -48.05667015 38.98983192 -49.90382385 38.75230408 C-69.06345225 35.99179466 -69.06345225 35.99179466 -75.3125 30.625 C-77 28 -77 28 -76.8671875 25.0546875 C-75.31444173 19.58510556 -70.74195842 17.68023737 -66 15 C-45.88051005 4.86610457 -22.47109719 -0.43213648 0 0 Z " fill="#4D83A3" transform="translate(188,318)"/>
<path d="M0 0 C0.54914063 0.48726563 1.09828125 0.97453125 1.6640625 1.4765625 C1.1278125 1.57453125 0.5915625 1.6725 0.0390625 1.7734375 C-17.16964616 5.01210955 -17.16964616 5.01210955 -33.3359375 11.4765625 C-34.3259375 11.9303125 -35.3159375 12.3840625 -36.3359375 12.8515625 C-38.65534655 14.40609474 -38.65534655 14.40609474 -39.1484375 17.6640625 C-39.24125 19.05625 -39.24125 19.05625 -39.3359375 20.4765625 C-33.24988306 24.38445009 -27.07141082 26.17033282 -20.0546875 27.5078125 C-19.17020935 27.67875427 -18.2857312 27.84969604 -17.37445068 28.02581787 C-8.80953229 29.6397258 -0.2602619 30.88597208 8.4140625 31.7265625 C9.6890863 31.85363586 9.6890863 31.85363586 10.98986816 31.98327637 C47.95734455 35.48120649 85.57770866 33.80441821 122.6640625 33.4765625 C122.06505408 37.02647556 121.11195124 40.02467393 119.6015625 43.2890625 C119.23933594 44.07925781 118.87710938 44.86945313 118.50390625 45.68359375 C118.22675781 46.27527344 117.94960938 46.86695313 117.6640625 47.4765625 C28.77043424 48.33208771 28.77043424 48.33208771 -9.00610352 43.75512695 C-11.33159457 43.47708176 -13.65834893 43.21530046 -15.98632812 42.95898438 C-57.42937862 38.38312138 -57.42937862 38.38312138 -66.3359375 29.4765625 C-66.42257799 25.05789767 -65.57767068 22.26417782 -62.6484375 19.0390625 C-50.80526702 8.30318031 -15.23994566 -9.939095 0 0 Z " fill="#4D83A3" transform="translate(147.3359375,448.5234375)"/>
<path d="M0 0 C-0.33 2.64 -0.66 5.28 -1 8 C2.52444079 11.26878187 6.28052828 11.89519222 10.875 12.625 C11.88820312 12.80675781 11.88820312 12.80675781 12.921875 12.9921875 C47.8599058 18.8791817 83.6471903 13.91015818 118.17848206 7.97694397 C120.11789742 7.64486248 122.05892648 7.32224781 124 7 C125.8552832 6.63962646 125.8552832 6.63962646 127.74804688 6.27197266 C131.27754281 5.97678809 132.24966665 6.17009143 134.96484375 8.30859375 C135.94614258 9.05786133 135.94614258 9.05786133 136.94726562 9.82226562 C137.60404297 10.35529297 138.26082031 10.88832031 138.9375 11.4375 C139.62134766 11.96666016 140.30519531 12.49582031 141.00976562 13.04101562 C142.68706722 14.342977 144.34551114 15.66916919 146 17 C137.89445509 25.10554491 120.02475609 26.17867472 109.0625 28.25 C107.77972168 28.49588867 106.49694336 28.74177734 105.17529297 28.99511719 C87.91589454 32.1363407 70.78738094 33.33827116 53.25390625 33.26074219 C50.36957933 33.24997977 47.48587132 33.2607399 44.6015625 33.2734375 C-1.153211 33.30974153 -1.153211 33.30974153 -17 22 C-19.3441343 19.62461058 -19.95066849 18.3404319 -20.43359375 15.0078125 C-19.75623858 10.30904239 -17.11870757 8.74737397 -13.59375 5.8359375 C-9.67200794 3.06000562 -4.95071128 0 0 0 Z " fill="#4D83A3" transform="translate(166,374)"/>
<path d="M0 0 C0.2475 1.6396875 0.2475 1.6396875 0.5 3.3125 C1.64224781 7.32915269 1.64224781 7.32915269 5.5625 8.625 C33.03087373 17.7801036 68.31785428 14.88844029 95.53515625 6.41796875 C101.89969703 5.33872015 106.33378058 7.4395237 111.5625 10.875 C115.62204799 13.51638657 119.62805886 15.90935747 124 18 C113.25662523 27.04416754 96.43599662 30.30672562 83 33 C82.08798828 33.18691406 81.17597656 33.37382812 80.23632812 33.56640625 C70.77992059 35.2713606 61.37974411 35.37227798 51.80126953 35.37060547 C49.03223739 35.37494943 46.26484265 35.41130417 43.49609375 35.44921875 C23.74949043 35.57380542 0.41271521 33.77024638 -14.64453125 19.515625 C-16.48451538 17.45823641 -16.99298121 16.03353421 -17.5625 13.3125 C-16.7973092 8.80637639 -14.71688239 7.33964182 -11.23828125 4.546875 C-7.8429536 2.20036584 -4.23991326 0 0 0 Z " fill="#4D83A3" transform="translate(179,421)"/>
<path d="M0 0 C5.74027421 4.22341418 9.90916625 9.53242206 11.26171875 16.6640625 C12.49905003 30.32053369 9.76861635 39.22353438 1.51171875 50 C-11.80502875 65.76739895 -33.31383624 76.00649582 -53.73828125 78.6640625 C-56.09765625 78.23046875 -56.09765625 78.23046875 -57.73828125 77.6640625 C-56.73410156 77.11878906 -55.72992188 76.57351563 -54.6953125 76.01171875 C-36.39878764 65.97044914 -14.41659723 53.76385261 -8.05078125 32.3515625 C-7.21481218 25.16222853 -6.90039205 17.86446101 -11.11328125 11.62890625 C-17.09141639 4.2254287 -24.37653454 0.28792168 -33.73828125 -1.3359375 C-36.74633038 -1.54678667 -39.72495356 -1.52882877 -42.73828125 -1.4609375 C-43.51300781 -1.45191406 -44.28773438 -1.44289063 -45.0859375 -1.43359375 C-46.97018968 -1.41033138 -48.85427957 -1.3744739 -50.73828125 -1.3359375 C-39.54850323 -14.13962581 -12.17230031 -7.75816943 0 0 Z " fill="#4D83A3" transform="translate(388.73828125,322.3359375)"/>
<path d="M0 0 C1.34822558 2.69645116 0.47931917 4.12549719 -0.43539429 6.87199402 C-0.66812042 7.54716568 -0.90084656 8.22233734 -1.140625 8.91796875 C-1.63417236 10.3957597 -2.12748803 11.87362804 -2.62060547 13.3515625 C-2.88597107 14.13821289 -3.15133667 14.92486328 -3.42474365 15.73535156 C-8.29864743 30.21756133 -12.779743 44.77917726 -16.875 59.5 C-17.10341583 60.32060913 -17.33183167 61.14121826 -17.56716919 61.98669434 C-18.65888965 65.91460533 -19.74569723 69.84384841 -20.82958984 73.77392578 C-22.41280593 79.50542349 -24.0458507 85.22250208 -25.6875 90.9375 C-25.93161621 91.78957031 -26.17573242 92.64164063 -26.42724609 93.51953125 C-26.95077843 95.34656034 -27.47524513 97.17332167 -28 99 C-31.86995362 95.96664723 -34.72343406 93.44574309 -37.1875 89.125 C-37.65542969 88.32320312 -38.12335938 87.52140625 -38.60546875 86.6953125 C-43.80518377 76.64544313 -44.86468418 66.71997269 -42.19140625 55.65234375 C-39.01308915 47.48109945 -33.98456834 40.16613836 -29 33 C-28.5683252 32.37077637 -28.13665039 31.74155273 -27.69189453 31.09326172 C-19.66241579 19.49966274 -10.18795931 9.71595834 0 0 Z " fill="#2A5F7F" transform="translate(192,686)"/>
<path d="M0 0 C3.43533844 0.29445758 5.02298284 1.01736482 7.8125 3.125 C10 6 10 6 10.875 9.3125 C9.4830064 15.17875873 5.87914309 17.6994032 1 21 C-19.8631754 32.943412 -46.32005993 38.33087381 -70 41 C-70.85078125 41.14179688 -71.7015625 41.28359375 -72.578125 41.4296875 C-79.92336874 42.19192978 -84.23235431 38.52344683 -89.7265625 34.1640625 C-90.47679687 33.44992187 -91.22703125 32.73578125 -92 32 C-92 31.34 -92 30.68 -92 30 C-90.64696777 29.91081299 -90.64696777 29.91081299 -89.26660156 29.81982422 C-71.67630633 28.61655761 -54.22257363 27.01797782 -36.8125 24.1875 C-36.08784546 24.07492859 -35.36319092 23.96235718 -34.61657715 23.84637451 C-22.5405659 21.94847997 -8.01970082 19.38907306 2 12 C3.16025399 8.54578685 3.16025399 8.54578685 3 5 C1.66621425 3.1645201 1.66621425 3.1645201 0 2 C0 1.34 0 0.68 0 0 Z " fill="#4E84A4" transform="translate(365,452)"/>
<path d="M0 0 C0.33 0 0.66 0 1 0 C1.40189359 4.21988267 1.02470285 6.94549521 -1.57421875 10.375 C-20.57122589 32.02638348 -51.16148403 34.8116358 -78.05517578 37.61450195 C-81.0529974 37.9118803 -81.0529974 37.9118803 -84 39 C-85.97265625 37.70703125 -85.97265625 37.70703125 -88.0625 35.8125 C-88.75472656 35.20019531 -89.44695312 34.58789062 -90.16015625 33.95703125 C-91.95438391 32.04852157 -92.9756527 30.39368203 -94 28 C-92.75863281 27.94392578 -92.75863281 27.94392578 -91.4921875 27.88671875 C-63.72540102 26.35744649 -21.08074051 23.24713424 -1.2421875 1.3203125 C-0.83226562 0.88460938 -0.42234375 0.44890625 0 0 Z " fill="#4E84A4" transform="translate(393,476)"/>
<path d="M0 0 C1.26070312 0.12117188 2.52140625 0.24234375 3.8203125 0.3671875 C5.58853904 0.53648579 7.35676836 0.70575497 9.125 0.875 C9.94226563 0.95363281 10.75953125 1.03226562 11.6015625 1.11328125 C13.52566817 1.29720312 15.45040256 1.47458598 17.37548828 1.64794922 C19.99707252 1.90258511 22.60106571 2.19203264 25.21435547 2.51220703 C43.79534259 4.64647433 62.46038995 4.23034577 81.13201904 4.1373291 C85.75205632 4.11656304 90.37211662 4.10767085 94.9921875 4.09765625 C103.99485073 4.07645373 112.99741378 4.04249548 122 4 C121.01 6.97 120.02 9.94 119 13 C111.78566643 13.07557726 104.5715757 13.12925715 97.35693359 13.16479492 C94.9154864 13.17964868 92.47406469 13.19993705 90.03271484 13.22631836 C67.92483346 13.45879299 46.34942047 11.73921282 24.625 7.5625 C23.55507812 7.37107422 22.48515625 7.17964844 21.3828125 6.98242188 C14.01349067 5.60067403 7.05209984 3.53777714 0 1 C0 0.67 0 0.34 0 0 Z " fill="#4F85A5" transform="translate(138,504)"/>
<path d="M0 0 C0.12979248 0.58628174 0.25958496 1.17256348 0.39331055 1.77661133 C1.35622357 5.30548411 3.14521667 8.44923851 4.8125 11.6875 C7.71241253 17.39411359 10.47740568 23.11394659 13 29 C13.66 29 14.32 29 15 29 C14.38955672 36.63054095 12.20378179 43.70189474 10 51 C2.42655839 45.59039885 -1.86148197 37.66267259 -5 29 C-5.42617224 26.04962994 -5.47570223 23.16506357 -5.4375 20.1875 C-5.43157837 19.00426147 -5.43157837 19.00426147 -5.42553711 17.79711914 C-5.27584933 11.70376168 -4.55063203 4.55063203 0 0 Z " fill="#386E8F" transform="translate(154,734)"/>
<path d="M0 0 C0.66 0.33 1.32 0.66 2 1 C0.515 2.485 0.515 2.485 -1 4 C0.28817123 4.01030746 1.57634247 4.02061493 2.90354919 4.03123474 C15.01467463 4.12878574 27.12574659 4.23150195 39.23678493 4.33933926 C45.46390914 4.39461814 51.691038 4.44804593 57.91821289 4.49731445 C63.92231041 4.54488494 69.92634878 4.59722482 75.93037605 4.65294075 C78.22659911 4.67339757 80.52283841 4.692105 82.81908989 4.70907402 C86.02325214 4.73304465 89.2273014 4.76310887 92.43139648 4.79467773 C93.87069267 4.80331093 93.87069267 4.80331093 95.33906555 4.81211853 C96.20709808 4.82190735 97.07513062 4.83169617 97.96946716 4.84178162 C98.72810279 4.84823417 99.48673841 4.85468672 100.268363 4.8613348 C102 5 102 5 103 6 C103.08874135 9.10251201 103.11518455 12.1826812 103.09765625 15.28515625 C103.0962413 16.21597519 103.09482635 17.14679413 103.09336853 18.1058197 C103.08775172 21.09141191 103.0751964 24.07693029 103.0625 27.0625 C103.05748716 29.08137913 103.05292388 31.10025943 103.04882812 33.11914062 C103.03777683 38.07945572 103.02050095 43.03971532 103 48 C102.67 48 102.34 48 102 48 C102 34.47 102 20.94 102 7 C66.03 7 30.06 7 -7 7 C-4.66666667 4.66666667 -2.33333333 2.33333333 0 0 Z " fill="#164E71" transform="translate(599,707)"/>
<path d="M0 0 C2.4375 0.4375 2.4375 0.4375 4.4375 2.4375 C4.8125 5.375 4.8125 5.375 4.4375 8.4375 C2.75 10.4375 2.75 10.4375 0.4375 11.4375 C-2.25 10.875 -2.25 10.875 -4.5625 9.4375 C-5.5625 7.625 -5.5625 7.625 -5.5625 5.4375 C-3.58872169 0.61270858 -3.58872169 0.61270858 0 0 Z " fill="#3B718E" transform="translate(146.5625,693.5625)"/>
<path d="M0 0 C2.875 -0.125 2.875 -0.125 6 0 C8 2 8 2 8.25 5 C8 8 8 8 6 10 C3 9.9375 3 9.9375 0 9 C-1.5 6.6875 -1.5 6.6875 -2 4 C-1.125 1.6875 -1.125 1.6875 0 0 Z " fill="#356B8A" transform="translate(843,889)"/>
<path d="M0 0 C2.875 -0.125 2.875 -0.125 6 0 C6.66 0.66 7.32 1.32 8 2 C7.625 5.625 7.625 5.625 7 9 C5.02 9.33 3.04 9.66 1 10 C-0.625 8.375 -0.625 8.375 -2 6 C-1.1875 2.75 -1.1875 2.75 0 0 Z " fill="#366B8A" transform="translate(604,834)"/>
<path d="M0 0 C3.625 0.375 3.625 0.375 7 1 C8.32278481 6.41139241 8.32278481 6.41139241 6.9375 8.9375 C4.08906752 10.49954362 2.06495097 9.74921024 -1 9 C-1.625 5.625 -1.625 5.625 -2 2 C-1.34 1.34 -0.68 0.68 0 0 Z " fill="#366B8A" transform="translate(733,832)"/>
<path d="M0 0 C2.375 0.6875 2.375 0.6875 3.375 1.6875 C3.84558824 7.09926471 3.84558824 7.09926471 1.875 9.5625 C1.1325 10.119375 1.1325 10.119375 0.375 10.6875 C-4.5 8.8125 -4.5 8.8125 -5.625 7.6875 C-5.875 4.75 -5.875 4.75 -5.625 1.6875 C-2.625 -0.3125 -2.625 -0.3125 0 0 Z " fill="#356B8A" transform="translate(518.625,853.3125)"/>
<path d="M0 0 C2.375 0.6875 2.375 0.6875 3.375 1.6875 C3.5625 4.625 3.5625 4.625 3.375 7.6875 C2.715 8.3475 2.055 9.0075 1.375 9.6875 C-2.25 9.3125 -2.25 9.3125 -5.625 8.6875 C-5.8125 5.3125 -5.8125 5.3125 -5.625 1.6875 C-2.625 -0.3125 -2.625 -0.3125 0 0 Z " fill="#366B8A" transform="translate(549.625,850.3125)"/>
<path d="M0 0 C2.5 0.875 2.5 0.875 4 3.1875 C4.5 5.875 4.5 5.875 3.4375 8.1875 C1.5 9.875 1.5 9.875 -1.0625 10.25 C-3.5 9.875 -3.5 9.875 -5.5 7.875 C-5.25 4.3125 -5.25 4.3125 -4.5 0.875 C-2.5 -0.125 -2.5 -0.125 0 0 Z " fill="#366B8B" transform="translate(128.5,671.125)"/>
<path d="M0 0 C2.5 0.25 2.5 0.25 4.5 2.25 C4.8125 5.25 4.8125 5.25 4.5 8.25 C1.5 10.25 1.5 10.25 -1.125 9.9375 C-3.5 9.25 -3.5 9.25 -4.5 8.25 C-4.6875 5.3125 -4.6875 5.3125 -4.5 2.25 C-2.5 0.25 -2.5 0.25 0 0 Z " fill="#366B8A" transform="translate(819.5,869.75)"/>
<path d="M0 0 C1.2375 0.1546875 1.2375 0.1546875 2.5 0.3125 C4.64915785 3.53623677 4.88286803 4.57953674 4.5 8.3125 C2.5 10.3125 2.5 10.3125 0 10.5625 C-2.5 10.3125 -2.5 10.3125 -4.5 8.3125 C-4.75 5.3125 -4.75 5.3125 -4.5 2.3125 C-2.5 0.3125 -2.5 0.3125 0 0 Z " fill="#366A8A" transform="translate(488.5,846.6875)"/>
<path d="M0 0 C2.4375 0.9375 2.4375 0.9375 3.875 2.6875 C4.62494915 5.68729661 3.79303725 7.2264255 2.4375 9.9375 C0.1275 9.6075 -2.1825 9.2775 -4.5625 8.9375 C-5.89091008 3.50309513 -5.89091008 3.50309513 -4.4375 1 C-2.5625 -0.0625 -2.5625 -0.0625 0 0 Z " fill="#366B8B" transform="translate(703.5625,826.0625)"/>
<path d="M0 0 C0.66 1.98 1.32 3.96 2 6 C0.19873295 8.27528469 -0.6366157 8.94682181 -3.5625 9.375 C-4.366875 9.25125 -5.17125 9.1275 -6 9 C-8 6 -8 6 -7.75 2.875 C-7.37875 1.451875 -7.37875 1.451875 -7 0 C-4.3333581 -1.33332095 -2.83319697 -0.67102033 0 0 Z " fill="#366B8A" transform="translate(872,909)"/>
<path d="M0 0 C0.625 2.8125 0.625 2.8125 1 6 C0.01 7.485 0.01 7.485 -1 9 C-4.125 9.1875 -4.125 9.1875 -7 9 C-8.35439668 6.29120665 -8.06501451 3.99066732 -8 1 C-4.93251126 -0.86240388 -3.40254489 -1.2151946 0 0 Z " fill="#366B8A" transform="translate(675,824)"/>
<path d="M0 0 C1 1 1 1 1.25 3.9375 C1.1675 4.948125 1.085 5.95875 1 7 C-2 9 -2 9 -4.625 8.6875 C-7 8 -7 8 -8 7 C-7.6875 3.5 -7.6875 3.5 -7 0 C-4.31633121 -1.3418344 -2.84719317 -0.73004953 0 0 Z " fill="#366B8A" transform="translate(642,827)"/>
<path d="M0 0 C1.010625 0.0825 2.02125 0.165 3.0625 0.25 C5.0625 3.25 5.0625 3.25 4.75 5.875 C4.0625 8.25 4.0625 8.25 3.0625 9.25 C0.625 9.4375 0.625 9.4375 -1.9375 9.25 C-3.9375 7.25 -3.9375 7.25 -4.125 4.1875 C-3.87878357 0.33010924 -3.87878357 0.33010924 0 0 Z " fill="#366B8B" transform="translate(791.9375,854.75)"/>
<path d="M0 0 C2.97 0.495 2.97 0.495 6 1 C7.32841008 6.43440487 7.32841008 6.43440487 5.875 8.9375 C4 10 4 10 1.375 9.75 C-1 9 -1 9 -2 8 C-2.29386153 4.27775401 -2.14809171 3.22213757 0 0 Z " fill="#366B8A" transform="translate(575,843)"/>
<path d="M0 0 C5.71428571 0.71428571 5.71428571 0.71428571 7 2 C7.30232139 4.87205324 7.37392386 6.43911421 5.75 8.875 C4 10 4 10 1.9375 9.8125 C0 9 0 9 -2 7 C-1.43181818 1.43181818 -1.43181818 1.43181818 0 0 Z " fill="#366B8B" transform="translate(87,631)"/>
<path d="M0 0 C2.5 0.25 2.5 0.25 4.5 2.25 C4.75 4.75 4.75 4.75 4.5 7.25 C2.5 9.25 2.5 9.25 -0.625 9.375 C-2.048125 9.313125 -2.048125 9.313125 -3.5 9.25 C-4.125 5.875 -4.125 5.875 -4.5 2.25 C-2.5 0.25 -2.5 0.25 0 0 Z " fill="#366B8B" transform="translate(109.5,648.75)"/>
<path d="M0 0 C2.5 0.25 2.5 0.25 4.5 2.25 C4.75 4.75 4.75 4.75 4.5 7.25 C2.5 9.25 2.5 9.25 0 9.5 C-2.5 9.25 -2.5 9.25 -4.5 7.25 C-4.75 4.75 -4.75 4.75 -4.5 2.25 C-2.5 0.25 -2.5 0.25 0 0 Z " fill="#376C8C" transform="translate(68.5,613.75)"/>
<path d="M0 0 C2.5 0.25 2.5 0.25 4.5 2.25 C4.75 4.75 4.75 4.75 4.5 7.25 C2.5 9.25 2.5 9.25 0 9.5 C-2.5 9.25 -2.5 9.25 -4.5 7.25 C-4.75 4.75 -4.75 4.75 -4.5 2.25 C-2.5 0.25 -2.5 0.25 0 0 Z " fill="#366C8B" transform="translate(43.5,603.75)"/>
<path d="M0 0 C1.9375 0.8125 1.9375 0.8125 3.9375 2.8125 C3.5625 5.9375 3.5625 5.9375 2.9375 8.8125 C0.33167629 9.74315133 -0.70448224 9.96167407 -3.3125 8.875 C-3.89 8.524375 -4.4675 8.17375 -5.0625 7.8125 C-5.29303497 4.96923536 -5.42153101 3.35104651 -3.8125 0.9375 C-2.0625 -0.1875 -2.0625 -0.1875 0 0 Z " fill="#356A8A" transform="translate(891.0625,931.1875)"/>
<path d="M0 0 C1.4540625 0.0309375 1.4540625 0.0309375 2.9375 0.0625 C3.2675 2.3725 3.5975 4.6825 3.9375 7.0625 C2.25 8.1875 2.25 8.1875 -0.0625 9.0625 C-2.8125 8.1875 -2.8125 8.1875 -5.0625 7.0625 C-4.02286585 0.0820993 -4.02286585 0.0820993 0 0 Z " fill="#366B8A" transform="translate(763.0625,841.9375)"/>
<path d="M0 0 C4.70882222 4.37016317 7.28961059 9.52386921 10.3125 15.125 C10.87517578 16.13949219 11.43785156 17.15398438 12.01757812 18.19921875 C12.80745117 19.65134766 12.80745117 19.65134766 13.61328125 21.1328125 C14.09579346 22.01855957 14.57830566 22.90430664 15.07543945 23.81689453 C15.53309692 24.89753174 15.53309692 24.89753174 16 26 C15.67 26.66 15.34 27.32 15 28 C14.38125 26.7934375 14.38125 26.7934375 13.75 25.5625 C12.26547669 22.85890282 12.26547669 22.85890282 9.8125 22.1875 C8.9153125 22.0946875 8.9153125 22.0946875 8 22 C8 21.34 8 20.68 8 20 C8.66 20 9.32 20 10 20 C9.69707031 19.4652002 9.39414062 18.93040039 9.08203125 18.37939453 C7.71694793 15.96372208 6.3584068 13.54443265 5 11.125 C4.52304687 10.28324219 4.04609375 9.44148437 3.5546875 8.57421875 C3.10351562 7.76855469 2.65234375 6.96289062 2.1875 6.1328125 C1.76855469 5.38918457 1.34960938 4.64555664 0.91796875 3.87939453 C0 2 0 2 0 0 Z " fill="#0E0D0E" transform="translate(377,605)"/>
<path d="M0 0 C0.66 0 1.32 0 2 0 C3.36402043 2.2863012 4.71634274 4.57821749 6.0625 6.875 C6.45244141 7.52597656 6.84238281 8.17695313 7.24414062 8.84765625 C8.22444533 10.53065725 9.11898432 12.26296199 10 14 C9.67 14.66 9.34 15.32 9 16 C7.33333333 14.33333333 5.66666667 12.66666667 4 11 C3.21625 10.319375 2.4325 9.63875 1.625 8.9375 C1.08875 8.298125 0.5525 7.65875 0 7 C0.375 4.875 0.375 4.875 1 3 C0.34 2.34 -0.32 1.68 -1 1 C-0.67 0.67 -0.34 0.34 0 0 Z " fill="#E38210" transform="translate(223,302)"/>
<path d="M0 0 C1 2 1 2 0.56274414 3.78759766 C0.30614014 4.48933105 0.04953613 5.19106445 -0.21484375 5.9140625 C-0.48876953 6.67460938 -0.76269531 7.43515625 -1.04492188 8.21875 C-1.33947266 9.0128125 -1.63402344 9.806875 -1.9375 10.625 C-2.22818359 11.42679688 -2.51886719 12.22859375 -2.81835938 13.0546875 C-3.53882525 15.03892138 -4.26855138 17.01978837 -5 19 C-6.58312594 14.25062218 -4.5247862 10.69634149 -3 6 C-5.97 8.97 -8.94 11.94 -12 15 C-12.66 14.67 -13.32 14.34 -14 14 C-9.38 9.38 -4.76 4.76 0 0 Z " fill="#2D6A90" transform="translate(192,686)"/>
<path d="M0 0 C6.13059117 5.57489431 8.49772989 13.09525479 8.95703125 21.1640625 C8.97121094 21.76992188 8.98539062 22.37578125 9 23 C7 22 7 22 6.23803711 20.29760742 C5.8862439 19.21249878 5.8862439 19.21249878 5.52734375 18.10546875 C5.13772461 16.91920898 5.13772461 16.91920898 4.74023438 15.70898438 C4.47533203 14.87689453 4.21042969 14.04480469 3.9375 13.1875 C3.66873047 12.36701172 3.39996094 11.54652344 3.12304688 10.70117188 C1.96928348 7.15356522 0.87222783 3.62857009 0 0 Z " fill="#2C6689" transform="translate(432,719)"/>
<path d="M0 0 C0 3.63195496 -0.95453155 4.74713911 -3 7.6875 C-3.556875 8.49574219 -4.11375 9.30398437 -4.6875 10.13671875 C-5.120625 10.75160156 -5.55375 11.36648437 -6 12 C-8.0390625 8.328125 -8.0390625 8.328125 -7.6875 5.375 C-7 3 -7 3 -6 1 C-5.38125 1.20625 -4.7625 1.4125 -4.125 1.625 C-3.073125 1.810625 -3.073125 1.810625 -2 2 C-1.34 1.34 -0.68 0.68 0 0 Z " fill="#225C87" transform="translate(248,207)"/>
<path d="M0 0 C0.66 0.33 1.32 0.66 2 1 C1.01 1.66 0.02 2.32 -1 3 C2.96 2.34 6.92 1.68 11 1 C8.18034769 3.81965231 4.88680496 4.26535843 1.125 5.1875 C0.40441406 5.37763672 -0.31617188 5.56777344 -1.05859375 5.76367188 C-4.76725872 6.68913063 -7.35404127 7.12653757 -11 6 C-9.21385682 4.96953278 -7.42089982 3.95086764 -5.625 2.9375 C-4.62726563 2.36902344 -3.62953125 1.80054688 -2.6015625 1.21484375 C-1.74304688 0.81394531 -0.88453125 0.41304688 0 0 Z " fill="#5389A9" transform="translate(342,394)"/>
<path d="M0 0 C0.88009925 2.45090931 1.11784986 3.65761515 0.2578125 6.15625 C-0.11601562 6.9296875 -0.48984375 7.703125 -0.875 8.5 C-3.36901351 14.26203122 -3.78615584 19.77713483 -4 26 C-4.33 26 -4.66 26 -5 26 C-5.44144135 16.80330526 -5.57930733 9.27585662 -1 1 C-0.67 0.67 -0.34 0.34 0 0 Z " fill="#3B7AA0" transform="translate(154,734)"/>
<path d="M0 0 C1.26041675 2.5208335 0.66225891 3.35096436 0 6 C0.33 6.66 0.66 7.32 1 8 C-0.98 10.64 -2.96 13.28 -5 16 C-6.21940034 11.12239864 -5.3649428 10.07295382 -3.0625 5.75 C-2.49660156 4.67234375 -1.93070313 3.5946875 -1.34765625 2.484375 C-0.90292969 1.66453125 -0.45820312 0.8446875 0 0 Z " fill="#225576" transform="translate(691,598)"/>
<path d="M0 0 C4.62 0 9.24 0 14 0 C14 0.33 14 0.66 14 1 C11.36 1.33 8.72 1.66 6 2 C6 2.66 6 3.32 6 4 C7.95927063 5.7143618 9.95880212 7.38405168 12 9 C8.23396179 9 7.22857351 7.92592757 4.3125 5.625 C3.10013672 4.68527344 3.10013672 4.68527344 1.86328125 3.7265625 C1.24839844 3.15679687 0.63351562 2.58703125 0 2 C0 1.34 0 0.68 0 0 Z " fill="#5790B3" transform="translate(273,482)"/>
<path d="M0 0 C0.33 0.66 0.66 1.32 1 2 C3.01669827 3.13350534 3.01669827 3.13350534 5 4 C3.3811004 5.03048037 1.75467511 6.04914678 0.125 7.0625 C-0.77992188 7.63097656 -1.68484375 8.19945312 -2.6171875 8.78515625 C-3.40351563 9.18605469 -4.18984375 9.58695312 -5 10 C-5.66 9.67 -6.32 9.34 -7 9 C-6.57847656 8.51789063 -6.15695313 8.03578125 -5.72265625 7.5390625 C-5.17480469 6.90742188 -4.62695312 6.27578125 -4.0625 5.625 C-3.51722656 4.99851562 -2.97195313 4.37203125 -2.41015625 3.7265625 C-0.93041376 2.04367666 -0.93041376 2.04367666 0 0 Z " fill="#E28310" transform="translate(260,323)"/>
<path d="M0 0 C0.33 1.32 0.66 2.64 1 4 C1.66 4 2.32 4 3 4 C3.06058594 4.59167969 3.12117187 5.18335938 3.18359375 5.79296875 C3.62012371 9.90978208 4.08671346 13.95544533 5 18 C0.36070726 12.72807643 -0.27818815 6.81560969 0 0 Z " fill="#175B90" transform="translate(200,251)"/>
<path d="M0 0 C-2.48952921 2.66735273 -4.63408134 4.55746343 -8 6 C-8 5.34 -8 4.68 -8 4 C-9.65 3.67 -11.3 3.34 -13 3 C-8.55314722 0.61775744 -5.04771183 -0.14021422 0 0 Z " fill="#E08110" transform="translate(340,158)"/>
<path d="M0 0 C4.95 0 9.9 0 15 0 C16.03159626 3.09478879 15.97482862 4.52631393 15.5625 7.6875 C15.46066406 8.49574219 15.35882813 9.30398438 15.25390625 10.13671875 C15.17011719 10.75160156 15.08632813 11.36648438 15 12 C14.67 12 14.34 12 14 12 C13.67 8.7 13.34 5.4 13 2 C8.71 1.67 4.42 1.34 0 1 C0 0.67 0 0.34 0 0 Z " fill="#212425" transform="translate(248,651)"/>
<path d="M0 0 C0.33 0.99 0.66 1.98 1 3 C-0.62255228 4.48185125 -2.24811888 5.96040256 -3.875 7.4375 C-5.23238281 8.67306641 -5.23238281 8.67306641 -6.6171875 9.93359375 C-9 12 -9 12 -11 13 C-9.46356148 9.31930113 -7.21849055 7.01224796 -4.375 4.25 C-3.55773437 3.45078125 -2.74046875 2.6515625 -1.8984375 1.828125 C-0.95871094 0.92320312 -0.95871094 0.92320312 0 0 Z " fill="#15496E" transform="translate(653,655)"/>
<path d="M0 0 C0.33 0 0.66 0 1 0 C1.66 5.28 2.32 10.56 3 16 C2.01 16.33 1.02 16.66 0 17 C0 11.39 0 5.78 0 0 Z " fill="#DEE5E8" transform="translate(732,620)"/>
<path d="M0 0 C1.29567565 2.5913513 1.34250494 4.12295849 1 7 C-1 9.3125 -1 9.3125 -3 11 C-3.75 9.4375 -3.75 9.4375 -4 7 C-2.86915563 4.49713591 -1.47860484 2.32992278 0 0 Z " fill="#1D5C8D" transform="translate(288,126)"/>
<path d="M0 0 C2.0245738 1.93254772 3.42105792 3.63158688 5 6 C5.66 6.33 6.32 6.66 7 7 C6.67 8.65 6.34 10.3 6 12 C3.32289809 10.66144904 3.04870906 9.27941912 1.875 6.5625 C1.52179688 5.75941406 1.16859375 4.95632812 0.8046875 4.12890625 C0 2 0 2 0 0 Z " fill="#175A8F" transform="translate(285,64)"/>
<path d="M0 0 C1.6396875 0.0928125 1.6396875 0.0928125 3.3125 0.1875 C2.9825 1.1775 2.6525 2.1675 2.3125 3.1875 C-0.6575 3.1875 -3.6275 3.1875 -6.6875 3.1875 C-3.6875 0.1875 -3.6875 0.1875 0 0 Z " fill="#326483" transform="translate(663.6875,396.8125)"/>
<path d="M0 0 C0.66 0.33 1.32 0.66 2 1 C1.34 1.66 0.68 2.32 0 3 C0.33 3.66 0.66 4.32 1 5 C-1.64 5.66 -4.28 6.32 -7 7 C-4.66666667 4.66666667 -2.33333333 2.33333333 0 0 Z " fill="#165A90" transform="translate(271,321)"/>
<path d="M0 0 C0 0.99 0 1.98 0 3 C-3 5.1875 -3 5.1875 -6 7 C-6.66 6.67 -7.32 6.34 -8 6 C-7.0479279 4.99403703 -6.08812654 3.99538437 -5.125 3 C-4.59132813 2.443125 -4.05765625 1.88625 -3.5078125 1.3125 C-2 0 -2 0 0 0 Z " fill="#0D0E0F" transform="translate(440,893)"/>
<path d="M0 0 C2 1 2 1 3.125 4.0625 C3.41375 5.031875 3.7025 6.00125 4 7 C3.38125 6.814375 2.7625 6.62875 2.125 6.4375 C-0.04160178 5.76313824 -0.04160178 5.76313824 -2 7 C-1.34 4.69 -0.68 2.38 0 0 Z " fill="#EAEAE9" transform="translate(395,660)"/>
<path d="M0 0 C2.31 0 4.62 0 7 0 C5.02 2.97 5.02 2.97 3 6 C0.8614515 3.8614515 0.57344937 2.86724686 0 0 Z " fill="#F3F5F5" transform="translate(888,262)"/>
<path d="M0 0 C2.31 0 4.62 0 7 0 C7.33 0.66 7.66 1.32 8 2 C7.0925 2.144375 6.185 2.28875 5.25 2.4375 C2.78523044 2.86409473 0.41152893 3.35074221 -2 4 C-1.34 2.68 -0.68 1.36 0 0 Z " fill="#4A80A0" transform="translate(315,337)"/>
<path d="M0 0 C2.50037734 2.17424117 3.43628586 3.73045798 4 7 C2.35 6.67 0.7 6.34 -1 6 C-0.67 4.02 -0.34 2.04 0 0 Z " fill="#1F5B88" transform="translate(180,258)"/>
<path d="M0 0 C1.88391785 3.26545761 2.49287967 6.28111761 3 10 C2.34 10 1.68 10 1 10 C-0.83691257 6.21812119 -1.15837626 4.05431692 0 0 Z " fill="#EEEDEC" transform="translate(261,659)"/>
<path d="M0 0 C0.66 0.33 1.32 0.66 2 1 C0.02 3.31 -1.96 5.62 -4 8 C-4.33 6.68 -4.66 5.36 -5 4 C-3.35 2.68 -1.7 1.36 0 0 Z " fill="#265A79" transform="translate(150,333)"/>
<path d="M0 0 C0.99 0.33 1.98 0.66 3 1 C2.67 2.32 2.34 3.64 2 5 C0.68 5 -0.64 5 -2 5 C-2 2 -2 2 0 0 Z " fill="#1B5989" transform="translate(277,315)"/>
</svg>
